<?xml version="1.0" standalone="no"?>
<!DOCTYPE svg PUBLIC "-//W3C//DTD SVG 20010904//EN"
 "http://www.w3.org/TR/2001/REC-SVG-20010904/DTD/svg10.dtd">
<svg version="1.0" xmlns="http://www.w3.org/2000/svg"
 width="5670.000000pt" height="9404.000000pt" viewBox="0 0 5670.000000 9404.000000"
 preserveAspectRatio="xMidYMid meet">

<g transform="translate(0.000000,9404.000000) scale(0.100000,-0.100000)"
fill="#000000" stroke="none">
<path d="M10816 94027 c13 -35 -24 -42 -227 -45 l-198 -4 -3 -36 c-4 -54 -35
-65 -196 -70 -124 -4 -132 -6 -127 -23 21 -66 -34 -85 -258 -89 -24 0 -27 -3
-22 -21 17 -53 -43 -95 -123 -87 -61 7 -69 3 -64 -30 2 -18 -3 -33 -15 -45
-24 -21 -105 -37 -149 -30 -33 5 -33 5 -27 -30 8 -50 -22 -67 -127 -74 -80 -6
-81 -6 -75 -30 9 -39 -30 -69 -101 -77 -72 -8 -80 -13 -88 -52 -8 -37 -29 -57
-70 -71 -16 -5 -33 -16 -36 -24 -33 -72 -35 -74 -83 -83 -38 -8 -47 -13 -47
-30 0 -12 -7 -32 -16 -44 -12 -18 -25 -22 -65 -22 -44 0 -49 -2 -49 -23 0 -34
-26 -65 -62 -73 -45 -9 -72 -29 -101 -73 -15 -23 -43 -46 -70 -59 -34 -16 -50
-32 -66 -65 -12 -26 -39 -56 -65 -74 -34 -24 -48 -42 -57 -75 -16 -56 -36 -78
-71 -78 -29 0 -31 -5 -28 -53 3 -46 -24 -77 -68 -77 -37 0 -37 0 -38 -42 -2
-47 -29 -78 -69 -78 -18 0 -24 -7 -30 -37 -9 -50 -30 -72 -76 -79 -37 -6 -37
-7 -44 -63 -10 -87 -23 -120 -51 -127 -13 -3 -31 -4 -39 0 -12 4 -15 -4 -15
-39 0 -86 -44 -155 -89 -140 -17 5 -19 -2 -22 -79 -5 -102 -27 -142 -77 -140
l-31 2 1 -71 c2 -65 0 -72 -26 -94 -18 -15 -38 -23 -55 -21 l-26 3 -5 -110
c-3 -60 -11 -120 -18 -132 -14 -24 -42 -36 -65 -28 -20 8 -27 -40 -25 -161 2
-75 -1 -96 -18 -125 -17 -28 -26 -34 -52 -33 l-32 2 0 -167 c0 -138 -3 -172
-18 -200 -23 -46 -46 -60 -72 -43 l-20 12 0 -4756 c0 -2617 -2 -4760 -5 -4763
-3 -3 -25 -3 -48 -1 -79 8 -6925 5 -6934 -3 -9 -10 -17 -12764 -8 -12845 l6
-52 18122 0 c15859 0 18122 -2 18125 -14 2 -9 -13 -23 -35 -34 -21 -11 -49
-34 -61 -52 -13 -17 -37 -36 -53 -42 -21 -7 -36 -24 -51 -55 -12 -26 -37 -55
-62 -72 -27 -19 -50 -46 -65 -79 -19 -41 -32 -54 -62 -66 -29 -12 -39 -22 -39
-38 0 -42 -23 -72 -65 -84 -38 -10 -40 -12 -37 -47 4 -44 -25 -77 -68 -77 -28
0 -30 -3 -30 -36 0 -50 -15 -72 -58 -84 -33 -8 -40 -15 -48 -47 -7 -31 -17
-42 -54 -59 -33 -16 -47 -30 -55 -55 -7 -20 -28 -47 -52 -64 -22 -16 -54 -52
-69 -78 -16 -27 -47 -61 -69 -76 -32 -21 -41 -34 -43 -61 -5 -47 -28 -70 -69
-70 -32 0 -33 -1 -33 -44 0 -54 -19 -76 -66 -76 -33 0 -34 -1 -34 -37 0 -50
-9 -62 -56 -78 -34 -12 -40 -18 -47 -55 -8 -37 -14 -44 -52 -61 -34 -15 -46
-27 -55 -54 -8 -23 -27 -46 -56 -66 -24 -16 -44 -35 -44 -40 0 -6 -29 -39 -65
-75 -44 -44 -67 -76 -75 -103 -9 -34 -16 -41 -53 -54 -40 -13 -42 -16 -39 -49
4 -48 -25 -82 -69 -82 -33 0 -34 -1 -35 -39 0 -43 -29 -77 -65 -77 -20 0 -39
-28 -39 -59 0 -23 -44 -61 -72 -61 -10 0 -21 -8 -24 -17 -19 -59 -28 -72 -63
-88 -27 -12 -44 -29 -59 -61 -12 -24 -37 -54 -57 -66 -20 -14 -47 -46 -65 -80
-24 -44 -38 -59 -64 -68 -36 -11 -46 -26 -46 -64 0 -31 -30 -56 -68 -56 -32 0
-32 0 -26 -40 8 -46 -15 -90 -45 -90 -36 0 -51 -12 -51 -39 0 -37 -25 -69 -62
-79 -17 -4 -34 -14 -38 -22 -29 -63 -40 -77 -73 -92 -23 -12 -39 -27 -43 -43
-6 -25 -66 -85 -85 -85 -5 0 -24 -30 -42 -67 -27 -55 -38 -68 -67 -78 -30 -10
-36 -17 -41 -50 -7 -44 -39 -75 -75 -75 -21 0 -24 -4 -24 -40 0 -53 -29 -83
-75 -78 -31 4 -33 2 -29 -22 9 -44 -11 -78 -54 -91 -35 -10 -41 -16 -48 -53
-8 -35 -15 -44 -51 -61 -30 -14 -45 -30 -56 -57 -9 -22 -30 -46 -54 -61 -22
-14 -52 -46 -67 -71 -15 -25 -40 -53 -56 -61 -38 -20 -60 -52 -60 -91 0 -39
-27 -64 -68 -64 -31 0 -32 -1 -32 -44 0 -54 -19 -76 -66 -76 -33 0 -34 -1 -34
-38 0 -48 -15 -68 -59 -79 -30 -8 -36 -14 -45 -53 -10 -41 -15 -46 -53 -60
-36 -12 -44 -20 -55 -54 -10 -30 -23 -46 -52 -63 -23 -12 -48 -37 -58 -57 -10
-20 -36 -47 -57 -61 -35 -24 -48 -44 -81 -131 -6 -14 -22 -25 -47 -31 -36 -8
-38 -11 -41 -51 -4 -49 -35 -78 -77 -70 -24 5 -25 3 -20 -26 7 -43 -14 -79
-55 -92 -27 -9 -37 -19 -45 -46 -13 -47 -30 -65 -66 -73 -17 -4 -33 -14 -36
-23 -18 -60 -27 -72 -63 -86 -30 -12 -43 -25 -58 -59 -10 -24 -38 -58 -60 -76
-23 -18 -54 -55 -69 -84 -17 -31 -36 -53 -48 -55 -31 -6 -55 -32 -55 -61 0
-39 -14 -53 -56 -60 -38 -6 -39 -7 -41 -50 -2 -54 -22 -75 -68 -75 -34 0 -35
-1 -35 -36 0 -45 -16 -68 -55 -78 -24 -7 -33 -17 -45 -53 -12 -36 -23 -48 -58
-64 -29 -13 -45 -28 -49 -45 -9 -36 -27 -60 -62 -81 -17 -10 -45 -42 -62 -70
-17 -27 -49 -61 -70 -75 -29 -18 -39 -31 -39 -50 0 -28 -16 -65 -34 -76 -6 -4
-23 -8 -38 -8 -26 0 -28 -3 -28 -40 0 -49 -27 -80 -70 -80 -25 0 -30 -4 -30
-24 0 -49 -17 -74 -58 -87 -35 -10 -41 -16 -48 -53 -8 -36 -15 -44 -56 -64
-34 -16 -48 -28 -48 -43 0 -24 -51 -79 -73 -79 -8 0 -29 -25 -46 -56 -18 -31
-46 -63 -65 -75 -33 -19 -47 -40 -63 -93 -10 -32 -22 -42 -65 -51 -24 -5 -28
-10 -28 -39 0 -46 -29 -79 -68 -79 -31 0 -32 -2 -32 -41 0 -53 -8 -64 -56 -81
-33 -11 -40 -18 -45 -47 -7 -47 -15 -56 -59 -69 -33 -10 -41 -18 -52 -53 -10
-32 -22 -45 -51 -59 -23 -12 -45 -33 -57 -56 -10 -21 -39 -54 -63 -74 -24 -20
-54 -57 -66 -82 -15 -32 -32 -50 -58 -62 -31 -15 -39 -25 -45 -58 -10 -46 -30
-65 -70 -65 -28 0 -29 -2 -22 -35 8 -45 -15 -81 -58 -93 -28 -7 -35 -15 -46
-55 -12 -42 -17 -48 -54 -59 -22 -6 -42 -19 -45 -27 -18 -58 -27 -71 -63 -85
-30 -12 -43 -25 -59 -60 -12 -28 -31 -50 -50 -60 -17 -9 -46 -41 -66 -72 -19
-30 -51 -64 -70 -75 -22 -13 -37 -31 -40 -48 -15 -70 -19 -76 -60 -81 -39 -5
-40 -6 -41 -48 0 -53 -22 -76 -69 -76 -34 0 -35 -1 -35 -42 0 -45 -12 -61 -56
-73 -29 -7 -36 -17 -51 -66 -5 -20 -21 -37 -47 -50 -23 -12 -45 -34 -55 -55
-9 -19 -33 -46 -53 -60 -21 -14 -51 -46 -67 -72 -17 -26 -43 -54 -60 -63 -36
-18 -51 -43 -51 -84 0 -40 -31 -71 -70 -71 -28 0 -30 -2 -30 -40 0 -52 -29
-83 -74 -78 -30 3 -31 2 -28 -27 4 -45 -18 -78 -59 -88 -31 -7 -36 -13 -45
-50 -9 -41 -14 -45 -83 -76 -7 -4 -19 -22 -25 -41 -8 -24 -23 -41 -50 -57 -22
-12 -48 -37 -58 -56 -10 -20 -37 -52 -62 -71 -24 -20 -54 -57 -67 -83 -13 -25
-32 -50 -42 -54 -9 -5 -25 -13 -34 -18 -12 -5 -20 -24 -24 -55 -6 -57 -25 -72
-81 -67 -15 2 -18 -6 -18 -41 0 -55 -8 -66 -55 -83 -34 -11 -40 -18 -49 -56
-10 -39 -16 -46 -52 -58 -35 -12 -44 -21 -54 -54 -9 -31 -19 -42 -52 -57 -29
-13 -45 -28 -58 -57 -10 -22 -38 -56 -63 -77 -25 -20 -55 -57 -66 -81 -15 -32
-32 -50 -58 -62 -31 -15 -39 -25 -45 -58 -10 -46 -30 -65 -70 -65 -26 0 -28
-2 -28 -43 0 -53 -22 -77 -72 -77 -33 0 -34 -2 -30 -30 6 -40 -20 -77 -61 -88
-20 -5 -33 -15 -35 -28 -8 -47 -25 -72 -64 -90 -31 -14 -44 -28 -53 -54 -8
-24 -24 -42 -49 -56 -26 -15 -49 -41 -71 -81 -24 -41 -44 -64 -69 -75 -28 -14
-36 -24 -41 -55 -9 -57 -18 -68 -61 -73 -39 -5 -39 -6 -40 -49 0 -53 -32 -85
-76 -79 -27 4 -28 3 -28 -38 0 -45 -24 -74 -62 -74 -11 0 -23 -12 -29 -27 -25
-64 -36 -78 -69 -89 -26 -9 -38 -20 -46 -44 -12 -35 -56 -80 -78 -80 -7 0 -21
-18 -31 -41 -11 -22 -43 -61 -72 -86 -38 -33 -54 -54 -59 -79 -7 -38 -36 -64
-70 -64 -24 0 -34 -17 -34 -60 0 -38 -24 -60 -65 -60 -32 0 -34 -2 -29 -27 9
-47 -10 -81 -54 -94 -35 -10 -41 -16 -46 -49 -6 -41 -21 -58 -62 -69 -15 -4
-30 -14 -34 -22 -28 -61 -40 -76 -71 -91 -22 -10 -41 -29 -49 -48 -7 -17 -33
-49 -59 -71 -25 -22 -58 -61 -72 -87 -15 -29 -38 -54 -59 -64 -40 -20 -50 -34
-50 -69 0 -33 -18 -48 -65 -56 -33 -5 -36 -8 -30 -34 6 -28 -8 -67 -29 -81 -6
-4 -23 -8 -38 -8 -25 0 -28 -3 -28 -36 0 -51 -15 -72 -60 -84 -35 -9 -41 -16
-50 -51 -9 -33 -18 -44 -52 -59 -30 -13 -45 -28 -59 -59 -11 -25 -32 -49 -53
-61 -19 -12 -49 -45 -66 -74 -18 -29 -47 -61 -64 -71 -39 -23 -46 -33 -46 -67
0 -37 -33 -68 -70 -68 -29 0 -30 -2 -30 -43 0 -52 -22 -77 -68 -77 -29 0 -32
-3 -32 -33 0 -43 -23 -75 -63 -85 -20 -5 -33 -15 -35 -28 -8 -51 -25 -74 -62
-85 -32 -10 -41 -19 -55 -55 -11 -28 -28 -49 -50 -63 -19 -11 -45 -37 -59 -59
-14 -22 -45 -56 -70 -77 -31 -25 -49 -49 -56 -75 -11 -43 -26 -58 -67 -69 -25
-7 -28 -12 -29 -49 0 -52 -21 -75 -67 -76 -33 -1 -34 -2 -34 -40 0 -42 -28
-76 -62 -76 -23 0 -41 -20 -41 -45 0 -32 -27 -64 -62 -73 -23 -6 -34 -16 -41
-37 -13 -39 -32 -60 -68 -75 -19 -8 -36 -27 -48 -55 -11 -26 -32 -50 -55 -64
-20 -13 -48 -44 -63 -69 -36 -63 -53 -82 -74 -82 -23 0 -31 -14 -35 -64 -4
-48 -24 -66 -70 -66 -32 0 -33 -1 -27 -35 7 -43 -18 -85 -50 -85 -33 0 -43
-11 -53 -55 -9 -38 -16 -44 -83 -74 -7 -4 -19 -22 -25 -41 -8 -26 -21 -40 -52
-54 -30 -14 -46 -30 -60 -60 -10 -23 -35 -51 -54 -64 -22 -14 -47 -45 -67 -85
-25 -49 -38 -64 -65 -72 -28 -10 -35 -19 -44 -54 -11 -49 -35 -71 -74 -71 -25
0 -27 -3 -26 -46 1 -55 -21 -77 -72 -72 -30 4 -33 2 -28 -18 3 -12 1 -36 -5
-53 -8 -24 -20 -34 -50 -43 -30 -8 -41 -18 -45 -37 -13 -57 -18 -64 -59 -82
-33 -15 -45 -26 -50 -49 -6 -29 -41 -64 -73 -75 -9 -2 -30 -30 -47 -61 -19
-35 -45 -66 -70 -83 -31 -21 -41 -35 -46 -63 -8 -50 -25 -68 -65 -68 -34 0
-34 -1 -34 -44 0 -54 -19 -76 -66 -76 -32 0 -34 -2 -34 -33 0 -43 -23 -75 -63
-85 -20 -5 -33 -15 -35 -28 -8 -51 -25 -74 -62 -85 -32 -10 -41 -19 -55 -56
-13 -32 -26 -48 -54 -63 -24 -12 -43 -31 -51 -51 -8 -17 -35 -47 -61 -65 -27
-20 -51 -47 -58 -67 -25 -66 -37 -82 -71 -93 -32 -10 -35 -16 -38 -53 -4 -48
-36 -76 -77 -69 -24 5 -25 3 -25 -42 0 -52 -21 -80 -58 -80 -23 0 -42 -26 -42
-58 0 -23 -25 -46 -64 -59 -20 -6 -33 -19 -39 -39 -12 -38 -43 -71 -73 -78
-15 -4 -30 -21 -43 -50 -12 -29 -34 -54 -60 -72 -28 -18 -49 -44 -66 -79 -20
-43 -32 -56 -60 -65 -26 -8 -36 -19 -40 -38 -11 -54 -29 -77 -65 -82 -33 -5
-35 -8 -40 -50 -7 -59 -14 -68 -55 -76 -29 -5 -35 -10 -35 -33 0 -42 -23 -75
-60 -87 -19 -6 -37 -18 -41 -25 -28 -63 -37 -75 -69 -85 -26 -9 -38 -21 -51
-51 -9 -22 -35 -54 -58 -72 -23 -18 -53 -53 -68 -78 -14 -24 -43 -55 -63 -68
-29 -18 -39 -32 -45 -62 -9 -50 -31 -73 -69 -73 -30 0 -31 -1 -31 -46 0 -53
-20 -74 -72 -74 -24 0 -31 -4 -27 -15 3 -8 1 -30 -6 -49 -9 -29 -19 -38 -50
-47 -34 -10 -40 -17 -49 -56 -10 -38 -17 -46 -54 -62 -32 -14 -45 -27 -55 -55
-9 -23 -27 -45 -50 -60 -21 -13 -51 -44 -67 -70 -16 -25 -46 -57 -66 -70 -28
-19 -41 -38 -54 -76 -13 -40 -22 -51 -43 -56 -51 -11 -52 -12 -52 -58 0 -54
-19 -76 -66 -76 -33 0 -34 -1 -34 -37 0 -50 -9 -62 -56 -78 -24 -8 -40 -20
-42 -32 -8 -48 -25 -71 -63 -86 -21 -8 -42 -24 -45 -34 -15 -45 -30 -64 -62
-75 -26 -10 -39 -23 -53 -55 -11 -26 -34 -53 -58 -70 -24 -17 -52 -50 -70 -83
-20 -38 -40 -61 -62 -70 -25 -12 -35 -25 -45 -59 -14 -49 -27 -61 -66 -61 -27
0 -28 -2 -28 -49 0 -40 -4 -53 -22 -65 -12 -9 -30 -16 -40 -16 -19 0 -38 -28
-38 -58 0 -23 -25 -46 -64 -59 -20 -6 -33 -19 -39 -39 -13 -40 -27 -55 -64
-70 -22 -10 -38 -27 -51 -56 -13 -29 -31 -50 -56 -63 -27 -15 -45 -36 -69 -84
-25 -51 -38 -66 -61 -72 -34 -9 -46 -24 -46 -59 0 -38 -14 -52 -56 -59 -38 -6
-39 -7 -44 -56 -4 -40 -10 -52 -30 -62 -14 -8 -35 -12 -47 -10 -20 4 -23 0
-23 -30 0 -50 -15 -71 -60 -83 -34 -9 -40 -15 -40 -38 0 -38 -24 -68 -64 -82
-25 -8 -37 -20 -49 -50 -10 -25 -28 -47 -51 -60 -19 -12 -47 -41 -61 -66 -14
-24 -44 -56 -65 -69 -25 -16 -42 -35 -45 -53 -4 -15 -8 -36 -11 -47 -7 -35
-21 -48 -60 -54 -38 -6 -39 -7 -36 -43 4 -47 -24 -78 -70 -78 -30 0 -33 -3
-34 -33 -1 -51 -10 -65 -51 -77 -33 -10 -40 -18 -53 -58 -13 -40 -20 -49 -50
-58 -27 -9 -40 -22 -58 -58 -16 -33 -32 -51 -55 -61 -20 -8 -39 -27 -49 -48
-9 -19 -34 -48 -55 -63 -21 -15 -42 -31 -47 -35 -4 -4 -16 -31 -25 -60 -18
-55 -27 -64 -73 -74 -24 -5 -28 -10 -28 -39 0 -49 -29 -80 -72 -79 l-35 1 4
-42 c5 -51 -4 -64 -53 -81 -24 -8 -40 -20 -42 -32 -9 -51 -25 -73 -63 -85 -34
-10 -41 -17 -50 -50 -8 -33 -17 -43 -54 -59 -34 -15 -46 -27 -55 -54 -7 -21
-32 -53 -65 -80 -31 -27 -60 -62 -69 -85 -11 -28 -26 -45 -52 -57 -31 -15 -40
-27 -51 -65 -14 -48 -18 -51 -78 -60 -16 -3 -19 -10 -17 -36 5 -51 -20 -82
-66 -82 -36 0 -38 -2 -35 -27 5 -41 -18 -76 -57 -89 -27 -9 -36 -19 -43 -45
-9 -38 -49 -79 -76 -79 -12 0 -24 -15 -36 -46 -12 -31 -28 -52 -55 -69 -20
-13 -51 -46 -68 -74 -17 -27 -44 -58 -59 -67 -39 -25 -53 -44 -53 -74 0 -39
-22 -62 -61 -64 -33 -1 -34 -3 -39 -51 -4 -40 -10 -52 -30 -62 -14 -8 -35 -12
-47 -10 -20 4 -23 0 -23 -30 0 -50 -15 -71 -60 -83 -34 -9 -40 -15 -40 -38 0
-38 -24 -68 -63 -81 -24 -8 -38 -22 -52 -54 -14 -29 -31 -47 -55 -58 -24 -12
-41 -30 -53 -57 -10 -23 -40 -59 -67 -82 -33 -28 -52 -53 -62 -83 -13 -41 -19
-45 -85 -63 -8 -2 -13 -20 -13 -43 0 -49 -21 -71 -67 -71 -33 0 -34 -1 -28
-28 10 -46 -9 -79 -52 -92 -33 -10 -40 -18 -53 -58 -13 -42 -20 -48 -56 -60
-34 -11 -43 -19 -48 -44 -8 -40 -22 -56 -62 -73 -22 -9 -38 -26 -47 -48 -8
-18 -36 -51 -62 -72 -25 -21 -57 -60 -70 -86 -17 -33 -36 -53 -62 -66 -32 -15
-39 -24 -44 -56 -7 -47 -18 -58 -61 -62 -32 -2 -33 -3 -30 -46 3 -55 -5 -67
-54 -84 -24 -8 -40 -20 -42 -32 -9 -51 -25 -73 -63 -83 -33 -9 -40 -16 -51
-52 -10 -33 -20 -44 -51 -58 -29 -13 -44 -29 -58 -59 -10 -23 -32 -49 -51 -61
-18 -11 -51 -46 -73 -77 -23 -32 -51 -63 -65 -70 -28 -14 -35 -26 -44 -75 -7
-41 -29 -58 -70 -58 -23 0 -26 -4 -26 -38 0 -55 -23 -82 -69 -82 -35 0 -37 -2
-34 -27 5 -41 -18 -76 -57 -89 -27 -9 -36 -19 -43 -45 -11 -43 -24 -59 -62
-75 -17 -7 -38 -28 -50 -50 -11 -21 -35 -48 -54 -61 -18 -12 -46 -43 -62 -68
-16 -25 -44 -55 -62 -65 -36 -21 -57 -56 -57 -94 0 -35 -23 -58 -61 -61 -33
-2 -34 -4 -39 -51 -4 -39 -10 -51 -30 -61 -14 -8 -35 -12 -47 -10 -21 4 -23 0
-23 -34 0 -43 -27 -79 -58 -79 -25 0 -42 -19 -42 -47 0 -30 -42 -73 -70 -73
-15 0 -26 -12 -40 -45 -14 -32 -29 -49 -57 -64 -26 -13 -44 -32 -56 -59 -10
-23 -33 -50 -56 -65 -23 -16 -51 -48 -68 -78 -15 -29 -36 -56 -46 -61 -9 -4
-25 -12 -35 -17 -11 -5 -19 -24 -23 -55 -6 -53 -19 -66 -67 -66 -32 0 -33 -2
-27 -28 10 -47 -9 -79 -54 -93 -35 -10 -40 -16 -50 -56 -9 -33 -18 -46 -39
-54 -50 -20 -56 -25 -67 -60 -8 -26 -22 -39 -58 -57 -27 -12 -47 -29 -47 -38
0 -27 -30 -68 -71 -98 -24 -16 -49 -47 -62 -75 -15 -31 -33 -52 -56 -63 -40
-20 -51 -34 -51 -65 0 -32 -35 -63 -70 -63 -29 0 -30 -2 -30 -43 0 -52 -22
-77 -68 -77 -30 0 -32 -2 -32 -38 0 -43 -19 -66 -63 -77 -19 -5 -29 -15 -33
-34 -11 -52 -23 -69 -59 -81 -29 -10 -40 -21 -55 -56 -14 -32 -29 -49 -56 -61
-27 -13 -43 -32 -65 -75 -20 -39 -39 -63 -62 -74 -39 -20 -47 -31 -47 -64 0
-42 -26 -70 -66 -70 -33 0 -34 -1 -34 -38 0 -55 -23 -82 -69 -82 -36 0 -37 -1
-33 -30 6 -40 -20 -77 -60 -88 -25 -6 -34 -15 -41 -43 -11 -44 -32 -66 -69
-74 -16 -4 -32 -14 -35 -23 -18 -57 -28 -72 -60 -87 -19 -9 -42 -31 -52 -48
-9 -18 -42 -58 -73 -89 -32 -31 -58 -65 -58 -75 0 -30 -28 -62 -63 -71 -28 -7
-33 -13 -38 -52 -6 -48 -28 -70 -70 -70 -26 0 -28 -3 -31 -47 -3 -49 -2 -48
-78 -83 -8 -4 -17 -21 -21 -38 -9 -42 -24 -59 -60 -67 -22 -5 -35 -18 -52 -53
-15 -33 -32 -52 -57 -63 -24 -12 -41 -30 -54 -58 -11 -25 -33 -52 -56 -67 -23
-16 -49 -46 -66 -79 -22 -42 -37 -57 -66 -69 -32 -12 -38 -19 -38 -43 0 -45
-25 -73 -66 -73 -33 0 -34 -1 -34 -41 0 -57 -14 -78 -58 -85 -34 -5 -37 -9
-39 -39 -2 -50 -19 -73 -61 -85 -33 -8 -40 -15 -48 -47 -7 -31 -17 -42 -50
-58 -29 -14 -47 -32 -60 -60 -11 -22 -35 -50 -54 -63 -19 -12 -51 -50 -72 -82
-21 -33 -44 -60 -52 -60 -22 0 -56 -49 -56 -81 0 -33 -32 -59 -73 -59 -26 0
-29 -3 -24 -27 6 -30 -8 -73 -26 -85 -7 -4 -27 -8 -44 -8 -32 0 -33 -2 -33
-39 0 -45 -17 -67 -60 -76 -22 -5 -32 -14 -36 -33 -11 -55 -23 -71 -62 -82
-32 -10 -41 -19 -53 -54 -10 -30 -24 -46 -52 -61 -20 -11 -40 -29 -43 -40 -4
-10 -35 -47 -70 -82 -44 -44 -67 -75 -74 -103 -8 -31 -17 -41 -38 -46 -51 -11
-52 -12 -52 -57 0 -53 -22 -77 -71 -77 -34 0 -35 -1 -31 -34 3 -27 -2 -40 -22
-60 -14 -14 -36 -26 -49 -26 -21 0 -25 -6 -31 -38 -6 -43 -28 -67 -67 -77 -17
-4 -31 -20 -45 -48 -12 -28 -31 -48 -54 -59 -22 -11 -41 -32 -54 -58 -10 -23
-35 -52 -55 -66 -20 -13 -50 -48 -66 -77 -21 -35 -43 -58 -68 -70 -33 -17 -37
-23 -37 -58 0 -48 -28 -79 -70 -79 -29 0 -30 -2 -30 -44 0 -49 -13 -65 -62
-75 -28 -6 -34 -12 -39 -43 -7 -47 -23 -66 -63 -76 -22 -6 -34 -17 -41 -38
-15 -44 -24 -55 -62 -70 -23 -10 -39 -26 -48 -48 -14 -33 -67 -86 -86 -86 -6
0 -23 -28 -39 -63 -25 -55 -34 -66 -69 -79 -35 -14 -41 -21 -41 -46 0 -40 -28
-72 -65 -75 -28 -2 -30 -6 -35 -50 -7 -58 -20 -72 -68 -72 -36 0 -37 -1 -34
-31 5 -45 -13 -72 -56 -84 -34 -9 -39 -14 -48 -52 -8 -37 -15 -46 -50 -62 -30
-14 -46 -30 -60 -60 -12 -26 -32 -48 -55 -60 -26 -14 -45 -36 -63 -73 -17 -35
-38 -61 -61 -75 -40 -23 -55 -45 -55 -81 0 -33 -30 -57 -69 -57 -31 0 -33 -2
-28 -27 6 -30 -8 -73 -26 -85 -7 -4 -27 -8 -44 -8 -32 0 -33 -2 -33 -39 0 -45
-17 -67 -60 -76 -22 -5 -32 -14 -36 -33 -12 -56 -23 -71 -61 -81 -33 -9 -41
-17 -53 -53 -11 -32 -24 -48 -53 -63 -22 -12 -45 -35 -55 -55 -9 -19 -34 -46
-56 -61 -42 -28 -60 -54 -76 -111 -9 -31 -17 -38 -53 -50 -39 -12 -42 -15 -43
-51 -1 -49 -24 -71 -69 -70 -35 1 -35 1 -29 -33 8 -44 -15 -81 -58 -92 -25 -6
-34 -15 -41 -43 -11 -44 -32 -66 -69 -74 -16 -4 -32 -14 -35 -23 -18 -58 -27
-71 -62 -87 -27 -12 -43 -28 -56 -57 -10 -22 -34 -51 -56 -66 -22 -16 -51 -50
-69 -84 -21 -40 -39 -60 -56 -64 -29 -7 -54 -40 -54 -70 0 -27 -28 -51 -65
-56 -27 -3 -29 -6 -30 -45 -1 -51 -15 -69 -60 -77 -31 -6 -35 -10 -35 -40 0
-42 -19 -67 -61 -81 -25 -9 -37 -20 -45 -45 -13 -38 -47 -70 -75 -70 -12 0
-23 -11 -29 -28 -19 -51 -31 -67 -66 -90 -19 -12 -48 -45 -66 -73 -17 -28 -48
-61 -69 -75 -26 -16 -39 -32 -39 -47 0 -42 -12 -65 -39 -77 -15 -6 -34 -10
-42 -8 -9 2 -15 -11 -19 -44 -7 -58 -19 -71 -65 -72 -33 -1 -35 -3 -35 -34 0
-48 -15 -70 -58 -82 -34 -9 -39 -14 -48 -52 -8 -37 -15 -46 -53 -64 -33 -16
-47 -30 -55 -55 -7 -20 -26 -43 -48 -59 -21 -14 -51 -46 -68 -72 -17 -25 -43
-54 -58 -63 -37 -24 -62 -56 -62 -81 0 -32 -23 -55 -60 -63 -34 -7 -35 -8 -35
-55 -1 -56 -20 -76 -73 -76 -25 0 -33 -4 -29 -14 3 -8 1 -30 -4 -50 -8 -29
-17 -37 -52 -49 -36 -12 -43 -18 -48 -48 -7 -47 -14 -56 -55 -69 -27 -9 -39
-21 -51 -51 -11 -28 -27 -46 -54 -60 -24 -12 -46 -34 -58 -57 -11 -21 -40 -55
-64 -75 -24 -20 -54 -56 -65 -81 -15 -31 -32 -49 -59 -62 -31 -15 -39 -26 -44
-54 -8 -51 -15 -59 -60 -66 -39 -6 -39 -7 -33 -40 8 -44 -15 -81 -58 -92 -25
-6 -34 -15 -41 -43 -11 -44 -31 -65 -68 -73 -16 -3 -32 -14 -35 -23 -20 -61
-28 -72 -63 -86 -26 -11 -41 -26 -54 -55 -10 -24 -33 -50 -58 -67 -29 -19 -48
-43 -66 -82 -21 -46 -33 -58 -64 -71 -34 -13 -40 -21 -45 -52 -9 -52 -17 -62
-60 -69 -37 -6 -38 -7 -39 -49 -1 -51 -21 -74 -67 -75 -32 -1 -33 -2 -34 -41
-2 -44 -30 -76 -68 -76 -18 0 -25 -9 -37 -47 -11 -39 -21 -52 -53 -68 -23 -12
-45 -34 -55 -55 -9 -19 -34 -46 -55 -61 -21 -14 -47 -41 -56 -60 -25 -49 -55
-72 -83 -67 -24 5 -25 2 -31 -70 -8 -97 -8 -12805 0 -12855 l7 -37 10215 0
c5618 0 10217 -1 10219 -3 2 -2 3 -2126 3 -4719 l0 -4716 32 2 c29 1 35 -4 52
-37 15 -31 18 -60 17 -160 0 -67 2 -155 5 -194 6 -65 8 -71 24 -63 25 13 57
-13 70 -58 5 -20 10 -78 10 -129 0 -113 3 -121 39 -115 20 3 36 -3 50 -17 19
-19 21 -33 21 -126 l0 -105 28 6 c54 11 80 -41 82 -158 0 -48 0 -48 34 -48 52
0 63 -18 71 -114 l7 -86 32 0 c47 0 66 -26 66 -87 0 -89 9 -113 40 -113 15 0
38 -9 51 -19 21 -16 24 -28 24 -80 l0 -61 31 0 c36 0 64 -26 64 -61 0 -29 26
-69 44 -69 18 0 50 -37 76 -88 15 -28 36 -50 60 -62 34 -17 45 -33 63 -91 3
-9 18 -20 34 -23 42 -11 61 -34 69 -82 5 -36 10 -44 28 -44 40 0 66 -27 66
-71 0 -37 1 -39 33 -39 45 0 75 -24 79 -63 3 -29 6 -32 45 -38 51 -6 71 -22
81 -63 7 -25 16 -34 51 -45 35 -11 46 -21 61 -53 13 -30 29 -45 61 -60 48 -21
89 -55 89 -73 0 -24 37 -45 77 -45 48 0 67 -18 67 -63 0 -31 1 -32 47 -32 56
0 84 -21 96 -73 l9 -37 78 -6 c86 -6 106 -19 106 -70 0 -26 3 -27 63 -34 34
-3 75 -8 90 -11 32 -7 62 -46 54 -73 -4 -16 4 -19 70 -25 104 -8 128 -21 128
-69 l0 -37 51 0 c76 0 157 -18 172 -38 7 -9 11 -29 8 -44 l-5 -28 110 0 c79 0
118 -4 139 -15 29 -15 45 -46 38 -76 -2 -12 29 -15 187 -19 105 -3 196 -9 203
-14 8 -4 12 -17 9 -27 -5 -19 59 -19 2974 -19 2378 0 2977 3 2974 12 -3 7 -1
20 5 28 7 12 46 16 207 20 l198 5 -3 31 c-3 24 3 36 24 53 24 19 39 21 153 21
l127 0 -4 35 c-4 33 -2 36 39 55 32 14 66 20 126 20 l83 0 -6 28 c-4 21 1 33
21 52 21 20 39 25 95 28 67 4 70 5 64 27 -4 16 1 30 14 43 20 20 99 42 152 42
26 0 29 4 32 38 3 32 7 38 38 49 19 7 63 12 98 12 l62 1 0 33 c0 42 26 67 68
67 52 0 80 16 84 47 2 24 14 33 70 60 55 27 71 40 82 68 12 27 27 41 61 56 36
16 49 29 61 60 14 34 22 41 60 50 39 10 45 16 54 49 12 43 50 64 100 53 28 -5
30 -3 30 24 0 41 19 61 65 71 36 7 40 11 46 45 8 47 15 55 59 59 34 3 34 3 32
48 -3 56 5 68 54 85 34 12 40 18 47 55 8 37 14 44 51 61 33 14 46 27 58 58 11
26 29 48 57 65 30 19 49 43 69 84 24 50 31 57 59 60 35 3 49 27 38 62 -4 11
-1 36 5 55 11 34 19 39 75 47 17 3 21 16 32 88 13 93 29 115 74 106 26 -5 26
-5 32 75 6 98 24 129 71 129 l33 0 0 59 c0 81 26 126 74 127 l34 0 1 60 c2
137 25 192 78 182 22 -4 24 -1 30 40 3 24 3 74 0 111 -4 52 -2 73 13 101 16
31 23 35 56 35 l37 0 0 183 c0 143 3 189 15 212 16 32 44 45 75 35 l20 -6 0
4757 c0 2616 1 4759 3 4761 5 4 4729 4 4734 0 2 -2 3 -2122 3 -4710 l0 -4707
28 6 c20 4 33 0 47 -16 18 -20 21 -42 27 -219 3 -108 7 -199 7 -204 1 -4 11
-5 24 -2 15 4 32 -1 48 -13 23 -19 24 -27 29 -159 l5 -138 37 -3 c57 -5 68
-28 68 -144 l0 -98 33 0 c60 0 71 -18 77 -117 l5 -88 35 -3 c60 -6 70 -23 70
-123 l0 -89 28 6 c19 4 35 -1 52 -14 22 -18 25 -28 25 -94 0 -70 1 -73 23 -71
13 2 32 -2 42 -7 19 -10 50 -94 50 -136 0 -17 7 -23 39 -28 50 -8 66 -29 65
-83 l-1 -43 37 0 c45 0 60 -14 60 -58 0 -45 13 -66 54 -90 22 -13 45 -40 60
-70 18 -35 37 -56 63 -69 28 -15 42 -31 54 -64 12 -32 23 -45 44 -51 36 -9 65
-36 65 -60 0 -32 19 -58 43 -58 34 0 66 -27 75 -63 6 -23 16 -35 39 -42 41
-14 62 -32 78 -72 8 -18 22 -36 32 -39 65 -20 104 -46 120 -81 15 -31 25 -39
67 -49 54 -14 66 -26 66 -66 0 -27 2 -28 49 -28 56 0 81 -22 81 -71 0 -24 5
-27 44 -33 62 -10 96 -38 96 -82 l0 -35 81 3 c78 3 82 2 105 -25 13 -15 24
-39 24 -51 0 -30 16 -36 96 -36 74 0 104 -20 104 -69 0 -27 3 -29 53 -35 28
-3 66 -6 83 -6 39 0 64 -27 64 -68 l0 -32 85 0 c124 0 153 -18 146 -91 -2 -15
14 -17 113 -20 98 -4 119 -7 143 -25 19 -15 28 -30 28 -50 l0 -29 180 -5 c99
-3 186 -9 193 -13 6 -5 12 -17 12 -28 0 -19 37 -19 3020 -19 2798 0 3019 1
3013 16 -14 37 22 44 215 44 184 0 184 0 179 22 -16 60 43 88 188 88 105 0
105 0 100 23 -14 53 60 87 187 87 47 0 50 1 44 23 -12 50 55 87 159 87 33 0
35 2 35 34 0 45 29 66 91 66 83 0 109 9 109 39 1 51 23 66 113 71 l81 5 7 33
c10 49 34 69 90 77 39 5 49 11 49 25 0 54 48 91 97 76 24 -7 36 3 48 39 8 23
25 37 75 62 48 24 68 40 77 62 14 33 43 56 84 66 20 5 29 16 38 46 13 44 35
59 85 59 33 0 36 3 36 28 0 15 4 32 8 38 12 19 49 34 82 34 26 0 30 3 25 19
-6 21 11 72 28 83 7 4 24 8 40 8 24 0 27 3 27 36 0 51 15 72 60 85 34 10 42
18 50 49 10 36 37 68 75 88 11 6 34 37 50 69 22 42 38 60 60 68 39 13 46 24
39 57 -5 27 9 67 30 80 6 4 26 8 44 8 31 0 32 2 32 40 0 70 24 100 85 105 18
1 20 10 23 78 3 68 5 78 29 97 14 11 39 20 54 20 l29 0 0 89 c0 82 2 91 22
105 12 9 34 16 49 16 26 0 27 3 37 81 12 92 31 123 73 117 l27 -4 7 99 c8 114
25 144 75 133 l28 -5 4 117 c5 148 21 187 74 179 l34 -6 0 177 c0 154 3 183
20 220 18 40 22 43 52 40 l33 -3 2 4739 c2 2606 4 4741 6 4743 3 2 1139 3
2525 3 l2521 0 6 52 c3 29 5 2930 3 6446 -3 5669 -5 6394 -18 6402 -9 6 -6701
10 -18084 10 -11074 0 -18074 4 -18079 9 -11 11 25 66 53 81 10 6 32 10 49 10
30 0 31 2 31 43 0 51 22 77 63 77 19 0 27 5 27 18 0 9 5 34 10 54 9 32 17 39
51 50 23 6 43 19 46 27 18 58 27 71 62 84 27 11 41 26 55 57 11 26 32 50 53
62 19 11 50 45 69 75 19 29 50 63 69 74 26 16 36 30 41 57 10 58 21 71 62 74
36 3 37 4 34 39 -4 50 24 83 72 83 36 0 36 0 36 42 0 45 24 74 62 74 19 0 38
28 38 58 0 24 29 51 66 61 19 5 31 17 37 37 12 36 34 62 69 80 15 8 37 32 47
53 11 21 43 57 70 80 37 31 52 52 57 77 7 38 36 64 71 64 21 0 23 5 23 49 0
56 22 81 72 81 25 0 28 4 28 33 0 44 23 73 63 81 29 5 34 11 43 48 9 42 14 46
83 77 7 4 19 22 25 41 8 24 23 41 50 57 22 12 48 37 58 56 10 20 37 52 62 71
24 20 54 57 67 83 13 25 32 50 42 54 9 5 25 13 35 18 11 5 19 24 23 55 6 53
19 66 67 66 31 0 32 1 32 43 0 53 14 73 60 84 30 8 36 14 41 44 7 48 14 57 58
70 33 10 40 18 50 51 10 32 20 43 53 58 30 13 45 28 59 59 10 24 32 49 51 60
20 12 47 44 68 82 19 34 43 66 53 71 9 4 25 12 35 17 9 4 20 25 23 46 7 44 30
65 71 65 26 0 28 2 28 43 0 52 22 77 68 77 29 0 32 3 32 33 0 43 23 75 63 85
20 5 33 15 35 28 8 48 25 74 60 86 26 10 39 23 53 55 13 30 29 48 54 60 25 12
45 34 69 78 24 42 45 65 69 77 30 14 35 23 41 61 8 53 19 64 66 69 33 3 34 5
35 46 1 52 23 76 68 76 31 0 32 2 33 40 2 43 30 76 65 76 20 0 39 28 39 58 0
23 25 46 64 59 20 6 33 19 39 39 12 36 34 62 69 80 15 8 37 32 47 53 11 21 42
57 70 80 35 29 52 52 58 78 8 36 14 42 83 73 8 4 15 23 17 46 3 45 23 64 69
64 32 0 33 1 27 35 -7 43 18 85 50 85 33 0 43 11 51 51 7 41 22 57 62 68 15 4
30 14 34 22 28 61 40 76 68 89 20 10 44 35 60 63 15 26 42 57 61 70 19 13 46
46 60 73 18 34 37 55 64 67 31 16 38 25 43 58 8 46 24 62 64 61 30 -1 30 0 30
52 0 59 10 72 59 82 23 5 33 13 37 33 12 55 23 70 62 80 34 10 40 16 51 52 10
33 20 44 51 58 28 11 44 27 57 56 10 22 34 50 53 63 19 13 50 47 68 75 18 29
49 63 70 77 28 20 38 35 43 65 7 44 30 65 71 65 26 0 28 2 28 44 0 54 19 76
66 76 32 0 34 2 34 33 0 43 23 75 63 85 20 5 33 15 35 28 8 51 25 74 63 86 33
9 41 17 51 51 8 28 23 46 50 63 21 13 49 41 62 62 13 20 44 54 69 74 37 31 46
45 51 82 8 52 19 63 66 68 34 3 35 5 32 39 -4 49 24 83 70 83 34 0 35 1 35 38
0 45 15 65 57 76 24 6 33 16 41 44 13 47 31 66 68 76 22 6 33 17 40 37 13 39
32 60 68 76 20 8 36 25 46 51 10 24 31 50 58 68 26 18 51 47 64 73 24 50 47
73 76 79 15 2 21 14 27 53 8 56 27 75 74 75 32 0 33 1 27 35 -7 43 18 85 50
85 32 0 42 10 52 55 10 38 16 44 84 74 7 4 19 22 25 41 8 26 21 40 53 54 33
16 45 29 58 63 12 30 30 52 60 73 29 20 50 46 66 79 17 40 30 53 60 65 32 13
38 21 44 56 8 44 35 70 75 70 23 0 25 3 25 46 0 55 23 77 73 72 30 -4 33 -2
28 18 -11 41 13 83 53 95 33 10 39 17 49 55 11 39 18 47 56 64 35 14 46 25 51
49 6 30 40 65 73 76 9 2 31 30 47 61 19 35 45 66 70 83 32 21 41 34 43 61 5
47 28 70 69 70 32 0 33 1 33 44 0 54 19 76 66 76 33 0 34 1 34 38 0 44 21 69
66 81 17 4 30 15 32 27 8 47 25 72 64 90 30 14 44 28 52 53 8 24 22 40 49 54
23 12 45 34 57 57 10 20 31 48 46 61 72 64 84 79 84 102 0 28 27 55 66 66 25
6 29 13 32 49 4 48 36 77 76 70 23 -5 24 -2 23 39 -2 36 3 48 22 64 13 10 32
19 42 19 20 0 39 28 39 58 0 23 25 46 64 59 20 6 33 19 39 39 12 37 43 71 71
78 14 3 30 21 41 47 11 22 35 53 54 67 47 35 58 49 81 98 14 32 27 45 53 53
37 12 47 27 47 65 0 31 30 56 68 56 32 0 32 0 26 40 -8 48 15 90 49 90 32 0
42 10 52 55 10 38 16 44 84 74 7 4 19 22 25 41 8 24 23 41 50 57 22 12 48 37
58 56 9 19 36 49 58 67 22 17 52 52 67 77 14 24 43 55 63 68 30 19 38 31 44
64 7 45 35 71 77 71 26 0 27 2 22 39 -7 51 23 85 71 79 30 -3 31 -2 32 32 0
53 9 68 52 80 34 11 40 17 50 56 11 39 18 47 55 63 34 15 46 26 53 52 6 22 24
43 51 61 23 16 53 48 67 73 15 25 40 52 56 60 38 20 60 52 60 91 0 39 27 64
68 64 31 0 32 1 32 44 0 54 19 76 66 76 33 0 34 1 34 38 0 49 9 61 56 77 24 8
40 20 42 32 9 51 25 73 63 85 34 10 41 17 50 50 8 33 17 43 52 58 32 14 46 28
55 54 7 20 34 53 63 77 28 23 61 63 74 89 17 34 32 50 52 55 35 8 43 21 43 67
0 44 34 73 74 66 23 -5 24 -2 23 39 -2 36 3 48 22 64 13 10 34 19 47 19 20 0
25 6 30 40 7 43 42 80 76 80 11 0 22 11 28 28 17 46 25 56 61 74 22 11 43 34
59 65 14 26 41 58 60 71 20 13 48 47 65 79 22 43 37 59 59 64 34 9 46 24 46
60 0 32 26 56 65 61 28 3 30 6 35 53 4 40 10 52 30 62 14 7 35 11 48 8 20 -5
22 -2 22 33 0 47 16 70 54 80 31 8 38 18 52 67 6 21 21 35 49 49 29 13 45 29
57 57 10 24 30 47 52 60 21 12 48 43 67 75 19 33 47 65 70 80 28 17 39 31 39
49 0 13 5 36 12 50 11 24 22 30 73 37 16 3 19 10 17 40 -4 47 24 78 72 78 29
0 33 3 29 23 -8 41 13 75 55 88 34 10 40 16 50 55 11 39 18 47 56 63 32 14 45
26 50 48 10 37 23 51 61 67 22 10 39 28 55 60 12 26 33 54 47 64 44 29 67 58
78 98 9 34 16 41 53 52 38 13 42 17 42 47 0 47 29 79 71 78 34 -1 34 -1 31 41
-3 51 5 64 53 81 34 11 40 18 49 56 10 40 15 45 53 57 37 12 44 19 53 53 9 33
19 44 54 61 31 15 46 30 55 54 6 18 34 51 61 74 27 22 58 61 71 86 15 33 32
50 56 60 34 15 37 18 47 66 8 37 32 58 68 58 29 0 30 2 24 33 -8 44 12 80 54
93 28 9 37 19 45 47 12 44 26 59 67 73 22 7 35 20 41 40 13 40 27 55 65 71 23
9 37 25 48 53 10 24 29 48 50 61 19 12 52 46 72 77 21 31 48 62 62 69 33 16
50 41 50 72 0 39 14 53 56 60 38 6 39 7 44 56 4 40 10 52 30 62 14 7 35 11 48
8 20 -5 22 -2 22 35 0 44 26 80 58 80 25 0 42 19 42 47 0 30 42 73 70 73 15 0
26 12 40 45 13 30 32 52 54 66 19 11 47 40 61 65 14 24 43 55 65 69 39 25 44
32 55 97 6 41 27 58 69 58 24 0 26 4 26 40 0 53 29 83 75 78 32 -4 33 -3 29
27 -7 44 15 78 57 88 31 7 37 13 47 53 9 34 19 47 40 55 50 20 56 25 67 60 8
24 24 41 54 57 26 15 47 36 55 57 8 18 33 48 56 66 23 19 56 59 74 89 18 31
41 57 52 59 31 5 44 22 44 56 0 45 29 78 68 78 31 0 32 2 32 42 0 51 15 71 59
82 30 8 36 14 45 53 10 41 15 46 54 60 36 12 44 20 53 53 8 32 18 42 54 58 34
15 46 27 55 54 7 21 31 52 60 76 27 23 58 61 69 85 15 31 32 49 58 61 31 15
39 25 45 58 10 46 30 65 70 65 26 0 28 3 28 38 0 55 23 82 69 82 36 0 37 1 33
30 -6 40 20 77 60 88 25 6 34 15 41 43 11 44 24 59 65 76 22 9 37 25 48 52 10
25 28 45 54 60 28 15 47 38 67 77 20 40 38 61 64 75 38 19 49 35 49 73 0 34
22 56 60 59 34 2 35 4 40 52 4 40 10 52 30 62 14 7 35 11 48 8 20 -5 22 -2 22
39 0 47 12 63 56 75 29 7 36 17 50 66 7 22 21 35 51 50 30 14 44 27 48 46 7
30 39 64 72 73 12 4 31 26 43 51 12 24 43 63 70 85 33 28 52 53 62 83 13 41
19 45 86 63 7 2 12 20 12 43 0 49 20 71 65 71 32 0 34 2 29 28 -9 46 10 80 55
93 35 10 40 16 46 50 7 42 21 57 62 68 17 4 33 18 41 37 24 53 29 59 65 77 24
11 42 29 51 51 8 18 33 49 56 67 23 19 56 58 73 88 20 35 40 56 59 63 30 11
48 35 48 65 0 32 24 55 61 57 34 2 34 2 31 43 -5 55 10 79 54 90 34 8 38 13
48 53 10 41 15 46 53 58 37 12 44 19 53 54 9 32 18 43 52 58 30 13 45 28 59
59 11 25 32 49 53 61 19 12 49 45 67 75 20 33 45 61 65 70 34 16 44 32 44 71
0 33 34 64 70 64 29 0 30 2 30 43 0 53 22 77 72 77 33 0 34 2 30 30 -6 40 20
77 60 88 26 6 33 15 45 54 11 39 19 48 53 62 31 12 44 25 56 55 10 25 27 45
51 57 19 11 43 35 53 55 18 34 72 89 89 89 13 0 41 59 41 88 0 36 15 49 60 54
34 3 35 4 37 47 2 54 22 75 67 75 34 0 35 1 38 45 3 47 2 46 78 81 8 4 17 21
21 38 9 42 25 60 62 70 22 6 33 17 40 37 13 41 27 56 63 71 22 9 39 28 54 58
12 27 36 54 56 67 20 12 48 45 66 76 21 38 41 60 63 69 36 15 45 30 45 79 0
39 20 55 69 55 28 0 30 2 25 28 -9 46 10 80 54 93 35 10 41 16 48 52 9 41 13
45 83 77 8 3 20 22 26 41 8 25 22 39 51 53 31 14 46 30 62 66 14 30 36 56 60
72 23 15 48 46 63 74 16 32 36 55 58 66 41 20 51 34 51 70 0 32 32 58 73 58
26 0 29 3 24 27 -11 60 29 104 83 90 18 -5 20 0 20 38 0 49 16 70 59 80 24 5
31 13 40 52 10 39 17 47 52 61 31 12 44 25 59 58 13 31 29 49 54 61 26 12 43
32 63 71 16 32 41 63 58 73 47 28 55 38 55 67 0 44 26 72 66 72 34 0 34 1 34
43 0 53 22 77 71 77 34 0 35 1 31 34 -3 27 2 40 22 60 14 14 36 26 49 26 21 0
25 6 31 39 7 46 27 70 66 78 22 4 32 15 45 49 13 34 25 47 55 60 29 13 43 27
51 51 6 19 33 53 65 80 38 33 57 58 64 84 12 42 27 57 67 68 24 6 29 14 34 51
7 50 31 73 71 67 26 -3 27 -1 30 47 3 53 1 51 78 86 8 4 18 22 21 39 8 40 20
53 62 67 22 7 35 20 42 42 13 39 40 69 70 76 15 4 31 22 46 52 13 28 35 54 56
66 19 12 48 44 66 77 23 39 44 61 70 74 30 14 37 23 37 45 0 44 26 72 66 72
34 0 34 0 28 39 -8 51 8 78 55 91 34 9 40 15 46 48 9 48 19 60 64 72 32 8 39
15 47 47 7 31 17 42 50 58 29 14 47 32 60 60 11 22 34 50 52 62 18 12 51 49
72 82 22 34 46 61 53 61 22 0 47 35 54 74 6 41 34 66 74 66 24 0 26 3 25 46
-1 53 19 74 71 74 32 0 33 1 33 39 0 45 17 67 60 76 22 5 32 14 36 33 13 58
17 65 58 83 31 13 45 27 55 54 8 23 27 45 51 60 22 14 44 35 50 47 7 13 38 48
71 79 46 44 59 63 59 85 0 46 25 74 66 74 34 0 34 1 34 43 0 52 22 77 68 77
29 0 32 3 32 33 0 43 23 75 63 85 20 5 33 15 35 28 8 51 25 74 62 85 32 10 41
19 55 54 12 34 24 46 52 58 26 10 41 26 57 58 12 26 36 54 58 68 23 14 48 45
65 77 22 42 37 57 66 69 34 14 37 18 37 55 0 49 27 80 69 80 28 0 30 2 33 47
3 49 2 48 78 83 8 4 18 22 21 39 8 40 20 53 61 67 22 7 35 20 41 40 13 40 27
55 65 71 24 10 38 26 52 58 12 29 33 53 59 71 27 18 49 44 65 79 20 42 32 54
65 67 35 14 41 21 41 45 0 42 25 71 63 75 30 3 32 6 37 50 7 58 19 71 65 72
34 1 35 2 35 39 0 41 27 77 59 77 23 0 32 12 46 60 8 27 19 39 52 54 31 15 45
29 56 57 10 24 29 47 56 63 26 17 49 43 66 76 16 32 40 59 65 75 33 21 41 32
46 65 7 45 34 70 75 70 24 0 26 3 25 46 -1 55 21 77 72 72 30 -4 33 -2 28 18
-3 12 -1 36 5 53 8 24 20 34 50 43 30 8 41 18 45 37 11 52 23 69 59 81 28 9
39 21 52 51 11 29 27 46 55 60 21 11 43 31 49 46 14 36 44 73 84 100 23 16 38
37 50 73 15 45 20 51 56 60 21 6 39 14 40 18 8 88 20 106 73 105 34 -1 34 0
29 33 -7 44 17 81 60 92 20 5 33 15 35 28 8 52 25 74 64 86 22 6 42 19 45 27
18 56 28 70 63 86 27 12 42 27 53 55 9 24 31 50 55 67 25 17 53 50 71 83 21
39 40 60 63 70 24 11 35 25 43 51 14 50 32 69 66 69 28 0 29 2 29 49 0 54 22
81 67 81 17 0 24 7 28 28 10 49 30 75 65 87 25 8 38 20 45 41 15 44 24 55 60
70 22 9 40 27 54 56 11 24 34 51 51 61 16 10 48 45 71 78 22 33 51 64 64 69
27 10 45 38 45 72 0 36 15 50 56 57 38 6 39 7 44 56 4 40 10 52 30 62 14 8 35
12 48 10 19 -4 22 0 22 30 0 49 15 71 58 83 34 9 39 14 48 52 8 37 15 46 51
62 31 15 45 29 56 58 10 23 28 45 49 58 19 11 49 43 67 70 18 28 46 57 62 65
32 17 43 35 53 84 9 47 33 71 71 71 31 0 32 1 31 46 -1 54 19 74 72 74 28 0
33 3 28 17 -4 9 -2 31 4 49 9 26 20 36 49 45 33 10 40 17 52 58 12 39 19 48
49 57 27 9 40 22 57 57 17 34 31 49 57 58 24 9 39 23 47 43 15 39 46 74 81 92
19 10 33 31 49 74 20 55 25 61 60 70 35 10 39 14 39 44 0 49 29 80 73 79 35
-1 35 0 30 33 -7 44 17 81 60 92 20 5 33 15 35 28 8 51 25 74 62 85 32 10 41
19 55 54 13 34 24 46 55 59 29 11 41 23 50 50 7 22 32 53 65 81 31 27 60 62
69 85 11 29 26 45 53 57 30 15 40 26 50 62 15 54 14 53 60 60 36 6 38 9 35 39
-5 50 20 82 66 82 37 0 37 1 38 40 2 48 16 67 57 78 24 6 33 16 40 43 10 42
28 61 69 75 25 8 35 20 46 52 9 28 24 48 49 63 19 12 51 46 69 75 19 30 47 61
62 71 38 24 52 43 52 73 0 39 22 62 61 64 33 1 34 3 39 51 4 40 10 52 30 62
14 8 35 12 48 10 19 -4 22 0 22 30 0 49 15 71 58 83 34 9 39 14 48 52 8 37 15
46 51 62 31 15 45 29 56 58 11 26 26 43 52 55 26 12 44 32 61 65 13 26 35 55
50 65 41 29 58 50 74 95 15 42 22 47 88 64 7 2 12 20 12 42 0 47 24 72 67 72
28 0 30 2 30 43 0 56 5 64 54 78 30 9 41 19 45 38 13 57 17 63 58 81 33 14 45
25 52 51 7 25 21 40 52 57 27 15 47 36 56 56 7 18 35 50 61 71 25 21 57 60 70
86 17 33 36 53 62 66 32 15 39 24 44 56 7 47 18 58 61 62 32 2 33 3 30 46 -3
55 5 67 54 84 24 8 40 20 42 32 9 52 25 73 64 83 21 6 41 19 44 28 20 60 28
71 64 86 29 11 41 24 50 51 7 22 26 45 48 60 21 14 55 51 77 82 22 31 53 64
70 73 23 13 31 26 37 60 9 53 17 61 65 69 36 6 38 8 35 39 -5 50 20 82 66 82
37 0 37 0 38 41 0 47 29 79 69 79 19 0 24 7 30 39 7 42 25 64 65 79 14 5 34
27 45 48 11 21 35 48 54 61 18 12 46 43 62 68 16 25 44 55 62 65 36 21 57 56
57 94 0 35 23 58 61 61 33 2 34 4 39 51 4 39 10 51 30 61 14 8 35 12 48 10 20
-4 22 0 22 34 0 43 27 79 58 79 25 0 42 19 42 47 0 30 42 73 70 73 15 0 26 12
40 45 15 35 28 50 56 61 24 10 40 26 49 48 8 19 37 53 65 77 36 32 55 58 68
94 18 50 22 53 90 71 7 2 12 20 12 43 0 48 20 71 64 71 32 0 33 1 33 43 0 55
5 64 53 78 34 10 40 17 49 56 9 33 18 46 39 54 50 20 56 25 67 60 8 26 22 39
57 56 36 17 48 30 53 53 4 19 26 47 58 75 29 25 61 64 72 88 14 29 33 48 60
63 33 17 41 27 46 59 7 44 30 65 71 65 26 0 28 2 28 43 0 52 22 77 68 77 30 0
32 2 32 38 0 49 27 76 75 76 33 0 35 2 35 36 0 19 7 63 15 98 11 48 13 73 5
105 -7 29 -11 2068 -13 6394 -1 3493 -6 6355 -10 6360 -11 11 -18358 16
-18417 5 -26 -5 -54 -6 -63 -3 -16 6 -17 292 -17 4803 l0 4796 -31 -2 c-24 -1
-36 6 -53 27 -19 26 -21 43 -24 217 l-4 189 -27 -5 c-53 -11 -81 57 -81 197
l0 86 -29 -5 c-20 -3 -35 2 -50 17 -18 18 -21 33 -21 104 0 107 -5 125 -34
120 -43 -9 -65 25 -78 115 l-11 82 -32 0 c-48 0 -59 21 -65 124 l-5 91 -27 -3
c-19 -2 -35 5 -53 22 -22 22 -25 33 -25 101 l0 75 -34 0 c-47 0 -76 37 -76 96
0 41 -2 44 -28 44 -47 0 -71 24 -74 77 -3 44 -4 46 -36 48 -41 3 -62 21 -62
54 -1 44 -23 81 -65 110 -24 15 -49 44 -61 70 -15 32 -31 48 -56 58 -37 15
-58 47 -58 88 0 20 -5 25 -24 25 -13 0 -35 9 -50 21 -20 16 -26 29 -26 60 0
39 0 39 -38 39 -43 0 -64 17 -79 64 -7 24 -18 32 -54 40 -38 9 -47 17 -63 52
-15 31 -30 45 -68 63 -33 15 -57 35 -74 62 -13 22 -37 44 -52 50 -61 24 -76
36 -87 69 -11 32 -15 35 -54 36 -50 0 -72 20 -76 65 -2 33 -3 34 -60 40 -68 8
-99 32 -97 78 l1 31 -80 0 c-90 0 -119 17 -119 69 0 36 -13 41 -99 41 -77 0
-101 16 -101 67 0 28 -3 31 -46 37 -26 3 -63 6 -83 6 -52 0 -75 20 -75 63 0
31 -3 36 -30 41 -17 4 -57 4 -88 0 -92 -10 -151 29 -133 87 6 18 -1 19 -130
19 -169 0 -195 10 -195 78 l0 32 -191 0 c-197 0 -229 6 -229 40 0 20 -24 20
-2860 20 -2443 0 -2859 -2 -2854 -14 3 -8 -5 -21 -18 -30 -19 -13 -55 -16
-216 -16 -193 0 -194 0 -189 -21 8 -29 -10 -65 -40 -78 -13 -6 -79 -11 -149
-11 -122 0 -125 -1 -119 -20 17 -53 -64 -98 -155 -86 -26 3 -60 4 -76 0 -27
-5 -29 -9 -26 -37 2 -23 -3 -39 -18 -55 -20 -21 -29 -23 -103 -20 l-82 3 3
-30 c2 -22 -4 -37 -23 -55 -24 -23 -34 -25 -106 -23 l-79 3 0 -34 c0 -55 -35
-76 -127 -76 -73 0 -73 0 -67 -24 9 -37 -31 -71 -98 -85 -54 -12 -56 -13 -62
-50 -7 -47 -23 -61 -75 -68 -37 -5 -41 -9 -47 -39 -8 -44 -20 -52 -78 -56 -35
-2 -51 -8 -57 -20 -5 -10 -13 -26 -17 -35 -5 -10 -35 -32 -67 -49 -40 -21 -63
-42 -76 -66 -11 -22 -30 -40 -51 -47 -55 -21 -62 -26 -70 -58 -10 -37 -28 -54
-70 -62 -25 -5 -34 -14 -45 -45 -17 -51 -28 -63 -65 -71 -24 -6 -34 -16 -50
-54 -13 -33 -30 -54 -55 -68 -23 -14 -46 -40 -67 -79 -17 -31 -39 -61 -48 -66
-53 -25 -53 -25 -50 -66 5 -54 -25 -86 -75 -80 -31 4 -34 2 -28 -19 3 -12 -1
-38 -9 -57 -12 -28 -21 -35 -54 -41 -38 -6 -40 -8 -46 -53 -3 -26 -15 -62 -27
-81 -17 -28 -25 -32 -49 -29 -36 5 -40 -4 -33 -76 5 -52 4 -57 -26 -86 -24
-24 -37 -31 -55 -26 -30 7 -37 -15 -29 -98 4 -53 2 -65 -17 -88 -16 -21 -30
-28 -56 -28 l-34 0 0 -74 c0 -60 -4 -78 -22 -101 -18 -23 -27 -26 -55 -22
l-33 6 0 -95 c0 -125 -14 -154 -77 -154 l-31 0 -4 -141 c-3 -135 -4 -142 -27
-161 -16 -12 -33 -17 -48 -13 -13 3 -24 4 -24 3 -1 -2 -5 -94 -8 -204 -5 -182
-8 -204 -26 -224 -14 -16 -27 -20 -47 -16 l-28 6 0 -4758 c0 -4500 -1 -4758
-17 -4770 -10 -7 -24 -9 -33 -5 -21 11 -4552 15 -4610 5 -25 -5 -54 -6 -63 -3
-16 6 -17 291 -17 4782 l0 4776 -37 -1 c-59 -2 -67 24 -71 246 -4 188 -4 188
-26 182 -14 -3 -31 2 -46 14 -27 22 -38 82 -39 215 -1 74 -2 78 -21 72 -59
-19 -95 40 -85 140 9 84 3 103 -34 97 -48 -7 -71 25 -71 101 0 74 -5 82 -47
92 -51 10 -63 37 -63 136 l0 87 -36 -1 c-56 -2 -74 28 -74 117 l0 71 -31 0
c-39 0 -67 34 -75 90 -7 44 -26 65 -59 65 -31 0 -56 32 -62 79 -5 37 -9 41
-33 41 -37 0 -58 27 -62 80 -3 41 -6 45 -30 48 -28 3 -68 44 -68 68 0 29 -25
65 -62 89 -23 15 -47 44 -61 72 -17 35 -30 48 -57 57 -30 9 -37 18 -52 61 -13
41 -21 51 -45 56 -47 10 -71 27 -82 62 -9 26 -22 39 -62 56 -34 16 -58 35 -74
62 -28 43 -52 59 -89 59 -35 0 -66 33 -66 70 0 29 -2 30 -44 30 -49 0 -76 24
-76 66 0 18 -7 22 -41 27 -50 7 -70 25 -84 75 -10 36 -12 37 -80 48 -77 13
-111 40 -100 81 5 22 3 23 -56 23 -99 0 -151 36 -134 92 7 20 5 21 -49 14 -88
-10 -157 30 -143 84 7 26 -15 31 -88 24 -60 -6 -65 -5 -90 20 -20 20 -26 35
-23 56 4 25 1 29 -27 33 -17 3 -51 3 -75 0 -52 -6 -122 10 -145 34 -11 10 -15
27 -13 45 l5 28 -112 0 c-133 0 -166 5 -195 32 -17 16 -21 28 -16 49 l6 29
-189 0 c-203 0 -256 9 -248 41 5 19 -65 19 -2864 19 -2393 0 -2868 -2 -2863
-13z"/>
</g>
</svg>
